v 0 0 0
v 0 6 0
v 1 0 0
v 0.8 6 0
v 0.7071067811865476 0 0.7071067811865475
v 0.5656854249492381 6 0.565685424949238
v 6.123233995736766e-17 0 1
v 4.898587196589413e-17 6 0.8
v -0.7071067811865475 0 0.7071067811865476
v -0.565685424949238 6 0.5656854249492381
v -1 0 1.2246467991473532e-16
v -0.8 6 9.797174393178826e-17
v -0.7071067811865477 0 -0.7071067811865475
v -0.5656854249492381 6 -0.565685424949238
v -1.8369701987210297e-16 0 -1
v -1.4695761589768238e-16 6 -0.8
v 0.7071067811865474 0 -0.7071067811865477
v 0.5656854249492379 6 -0.5656854249492381
vn 0 -1 0
vn 0 1 0
vn 0.9234417436015976 0.030781391453386577 0.38250209426124
vn 0.9234417436015977 0.030781391453386577 0.38250209426123993
vn 0 -1 0
vn 0 1 0
vn 0.3825020942612401 0.030781391453386577 0.9234417436015976
vn 0.38250209426124004 0.030781391453386587 0.9234417436015977
vn 0 -1 0
vn 0 1 0
vn -0.3825020942612399 0.030781391453386573 0.9234417436015976
vn -0.38250209426123993 0.030781391453386577 0.9234417436015977
vn 0 -1 0
vn 0 1 0
vn -0.9234417436015976 0.030781391453386577 0.3825020942612401
vn -0.9234417436015977 0.03078139145338658 0.3825020942612401
vn 0 -1 0
vn 0 1 0
vn -0.9234417436015978 0.03078139145338659 -0.3825020942612398
vn -0.9234417436015977 0.03078139145338659 -0.3825020942612399
vn 0 -1 0
vn 0 1 0
vn -0.3825020942612401 0.030781391453386583 -0.9234417436015976
vn -0.3825020942612401 0.030781391453386583 -0.9234417436015977
vn 0 -1 0
vn 0 1 0
vn 0.3825020942612398 0.030781391453386577 -0.9234417436015978
vn 0.38250209426123993 0.030781391453386594 -0.9234417436015977
vn 0 -1 0
vn 0 1 0
vn 0.9234417436015976 0.03078139145338659 -0.3825020942612402
vn 0.9234417436015976 0.03078139145338658 -0.3825020942612402
f 5//1 1//1 3//1
f 4//2 2//2 6//2
f 5//3 3//3 4//3
f 6//4 5//4 4//4
f 7//5 1//5 5//5
f 6//6 2//6 8//6
f 7//7 5//7 6//7
f 8//8 7//8 6//8
f 9//9 1//9 7//9
f 8//10 2//10 10//10
f 9//11 7//11 8//11
f 10//12 9//12 8//12
f 11//13 1//13 9//13
f 10//14 2//14 12//14
f 11//15 9//15 10//15
f 12//16 11//16 10//16
f 13//17 1//17 11//17
f 12//18 2//18 14//18
f 13//19 11//19 12//19
f 14//20 13//20 12//20
f 15//21 1//21 13//21
f 14//22 2//22 16//22
f 15//23 13//23 14//23
f 16//24 15//24 14//24
f 17//25 1//25 15//25
f 16//26 2//26 18//26
f 17//27 15//27 16//27
f 18//28 17//28 16//28
f 3//29 1//29 17//29
f 18//30 2//30 4//30
f 17//31 18//31 3//31
f 4//32 3//32 18//32
